<?xml version="1.0" encoding="utf-8"?>
<!-- Generator: Adobe Illustrator 18.0.0, SVG Export Plug-In . SVG Version: 6.00 Build 0)  -->
<!DOCTYPE svg PUBLIC "-//W3C//DTD SVG 1.1//EN" "http://www.w3.org/Graphics/SVG/1.1/DTD/svg11.dtd">
<svg version="1.1" id="Layer_1" xmlns="http://www.w3.org/2000/svg" xmlns:xlink="http://www.w3.org/1999/xlink" x="0px" y="0px"
	 viewBox="0 0 44 44" enable-background="new 0 0 44 44" xml:space="preserve">
<g>
	<defs>
		<rect id="SVGID_1_" y="0" width="44" height="44"/>
	</defs>
	<clipPath id="SVGID_2_">
		<use xlink:href="#SVGID_1_"  overflow="visible"/>
	</clipPath>
	<path clip-path="url(#SVGID_2_)" fill="#818181" d="M22,0C9.9,0,0,9.9,0,22c0,12.1,9.9,22,22,22s22-9.8,22-22C44,9.9,34.1,0,22,0"
		/>
</g>
<g>
	<defs>
		<path id="SVGID_3_" d="M24,10.2c-4.1,0-5.5,2.1-5.5,5.5v2.5h-2.5v4.2h2.5v12.3h5.1V22.4h3.4l0.4-4.2h-3.8l0-2.1
			c0-1.1,0.1-1.7,1.7-1.7h2.1v-4.2H24z"/>
	</defs>
	<clipPath id="SVGID_4_">
		<use xlink:href="#SVGID_3_"  overflow="visible"/>
	</clipPath>
	<rect x="15.9" y="10.2" clip-path="url(#SVGID_4_)" fill="#FFFFFF" width="11.5" height="24.6"/>
</g>
</svg>
