<?xml version="1.0" encoding="utf-8"?>
<!-- Generator: Adobe Illustrator 18.0.0, SVG Export Plug-In . SVG Version: 6.00 Build 0)  -->
<!DOCTYPE svg PUBLIC "-//W3C//DTD SVG 1.1//EN" "http://www.w3.org/Graphics/SVG/1.1/DTD/svg11.dtd">
<svg version="1.1" id="Layer_1" xmlns="http://www.w3.org/2000/svg" xmlns:xlink="http://www.w3.org/1999/xlink" x="0px" y="0px"
	 viewBox="0 0 44 44" enable-background="new 0 0 44 44" xml:space="preserve">
<g>
	<path fill="#818181" d="M22,0C9.9,0,0,9.9,0,22c0,12.2,9.9,22,22,22s22-9.8,22-22C44,9.9,34.1,0,22,0"/>
	<path fill="#FFFFFF" d="M15.3,10c-1.4,0-2.6,1.1-2.6,2.6c0,1.4,1.1,2.6,2.5,2.6c1.4,0,2.6-1.2,2.6-2.6C17.8,11.2,16.7,10,15.3,10
		 M17.4,17.1h-4.3v14h4.3V17.1z M24.4,31.2v-0.6c0-2.3,0-4.6,0-7c0-0.6,0.1-1.2,0.3-1.7c0.4-1,1.4-1.5,2.6-1.3
		c1,0.1,1.7,0.7,1.9,1.8c0.1,0.4,0.1,0.9,0.1,1.3c0,2.3,0,4.6,0,6.9c0,0.2,0,0.4,0,0.6h4.3c0-0.1,0-0.1,0-0.2c0-3.1,0-6.2,0-9.3
		c0-1.1-0.3-2.2-1-3.2c-1.8-2.5-5.9-2.5-7.9,0c-0.1,0.1-0.2,0.3-0.4,0.5v-1.9h-4.1v14.1H24.4z"/>
</g>
</svg>
