<?xml version="1.0" encoding="utf-8"?>
<!-- Generator: Adobe Illustrator 16.0.0, SVG Export Plug-In . SVG Version: 6.00 Build 0)  -->
<!DOCTYPE svg PUBLIC "-//W3C//DTD SVG 1.1//EN" "http://www.w3.org/Graphics/SVG/1.1/DTD/svg11.dtd">
<svg version="1.1" id="Layer_1" xmlns="http://www.w3.org/2000/svg" xmlns:xlink="http://www.w3.org/1999/xlink" x="0px" y="0px"
	 width="108.407px" height="29.186px" viewBox="0 0 108.407 29.186" enable-background="new 0 0 108.407 29.186"
	 xml:space="preserve">
<g>
	<defs>
		<rect id="SVGID_1_" x="-95.874" y="-83.417" width="300.156" height="210.021"/>
	</defs>
	<clipPath id="SVGID_2_">
		<use xlink:href="#SVGID_1_"  overflow="visible"/>
	</clipPath>
	<path clip-path="url(#SVGID_2_)" fill="#1A1A1A" d="M57.685,17.681h2.538v11.375h-2.538v-4.475h-4.524v4.475h-2.539V17.681h2.539
		v4.751h4.524V17.681z M62.477,19.187c-0.277-0.277-0.415-0.616-0.415-1.017c0-0.402,0.138-0.741,0.415-1.017
		c0.277-0.277,0.615-0.415,1.018-0.415c0.4,0,0.739,0.138,1.017,0.415c0.277,0.276,0.415,0.615,0.415,1.017
		c0,0.401-0.138,0.74-0.415,1.017c-0.277,0.276-0.616,0.415-1.017,0.415C63.092,19.602,62.754,19.463,62.477,19.187 M64.715,29.056
		h-2.441v-8.755h2.441V29.056z M71.226,22.449c-0.727,0-1.269,0.258-1.628,0.772c-0.357,0.516-0.536,1.197-0.536,2.042v3.792h-2.44
		v-8.755h2.44v1.156c0.314-0.358,0.708-0.662,1.179-0.911c0.473-0.25,0.952-0.38,1.441-0.391l0.016,2.294H71.226z M80.486,27.787
		c-0.986,0.933-2.145,1.398-3.474,1.398s-2.427-0.408-3.295-1.228s-1.302-1.918-1.302-3.296c0-1.377,0.441-2.474,1.325-3.286
		c0.886-0.814,1.929-1.221,3.134-1.221c1.204,0,2.227,0.363,3.066,1.09c0.841,0.727,1.262,1.725,1.262,2.994v1.302h-6.379
		c0.075,0.478,0.325,0.868,0.748,1.172c0.424,0.304,0.9,0.456,1.433,0.456c0.856,0,1.562-0.288,2.116-0.863L80.486,27.787z
		 M78.144,22.596c-0.336-0.282-0.746-0.423-1.229-0.423s-0.926,0.146-1.326,0.439c-0.401,0.293-0.635,0.688-0.7,1.188h3.841
		C78.676,23.279,78.479,22.878,78.144,22.596"/>
	<path clip-path="url(#SVGID_2_)" fill="#1A1A1A" d="M55.716,3.417c1.019,0,1.928,0.426,2.725,1.277
		c0.798,0.852,1.196,1.923,1.196,3.214s-0.398,2.371-1.196,3.239c-0.797,0.867-1.729,1.302-2.799,1.302
		c-1.068,0-1.928-0.429-2.579-1.286v4.312h-2.441V3.563h2.441V4.54C53.811,3.791,54.694,3.417,55.716,3.417 M53.03,7.949
		c0,0.711,0.197,1.291,0.593,1.741c0.396,0.451,0.875,0.675,1.441,0.675c0.564,0,1.058-0.224,1.48-0.675
		c0.423-0.45,0.635-1.028,0.635-1.733s-0.206-1.296-0.618-1.774c-0.413-0.477-0.906-0.716-1.481-0.716
		c-0.574,0-1.061,0.236-1.457,0.708C53.228,6.647,53.03,7.238,53.03,7.949 M65.749,5.711c-0.727,0-1.269,0.258-1.627,0.773
		C63.765,7,63.586,7.681,63.586,8.527v3.791h-2.441V3.563h2.441v1.156c0.313-0.358,0.708-0.662,1.18-0.911
		c0.472-0.25,0.952-0.38,1.439-0.391l0.017,2.294H65.749z M76.242,7.941c0,1.269-0.438,2.338-1.317,3.206
		c-0.879,0.867-1.982,1.302-3.312,1.302s-2.433-0.435-3.312-1.302c-0.879-0.868-1.318-1.937-1.318-3.206s0.439-2.341,1.318-3.214
		s1.982-1.31,3.312-1.31s2.433,0.437,3.312,1.31S76.242,6.672,76.242,7.941 M69.44,7.941c0,0.716,0.203,1.299,0.61,1.749
		c0.406,0.451,0.928,0.675,1.562,0.675c0.634,0,1.155-0.224,1.562-0.675c0.406-0.45,0.609-1.033,0.609-1.749
		c0-0.716-0.203-1.302-0.609-1.758C72.769,5.728,72.247,5.5,71.613,5.5c-0.635,0-1.156,0.228-1.562,0.683
		C69.644,6.639,69.44,7.225,69.44,7.941 M78.074,12.481V3.547h2.441v9.129c0,0.955-0.38,1.709-0.961,2.262
		c-0.58,0.554-1.291,0.83-2.131,0.83c-0.842,0-1.642-0.347-2.401-1.042l1.213-1.806c0.325,0.38,0.689,0.57,1.09,0.57
		c0.217,0,0.396-0.084,0.538-0.252C78.004,13.069,78.074,12.817,78.074,12.481 M78.277,2.449c-0.276-0.277-0.414-0.616-0.414-1.017
		c0-0.402,0.138-0.741,0.414-1.017C78.555,0.138,78.894,0,79.295,0s0.74,0.138,1.017,0.415c0.277,0.276,0.415,0.615,0.415,1.017
		c0,0.401-0.138,0.74-0.415,1.017c-0.276,0.276-0.615,0.415-1.017,0.415S78.555,2.725,78.277,2.449 M90.385,11.049
		c-0.987,0.933-2.146,1.4-3.475,1.4s-2.427-0.41-3.295-1.229c-0.868-0.819-1.302-1.918-1.302-3.296c0-1.377,0.442-2.473,1.326-3.286
		c0.884-0.814,1.928-1.221,3.133-1.221c1.204,0,2.226,0.363,3.067,1.09c0.841,0.727,1.261,1.725,1.261,2.994v1.302h-6.379
		c0.076,0.478,0.326,0.868,0.749,1.172c0.423,0.304,0.899,0.456,1.432,0.456c0.857,0,1.562-0.288,2.116-0.863L90.385,11.049z
		 M88.041,5.858c-0.337-0.282-0.745-0.423-1.229-0.423c-0.482,0-0.925,0.146-1.326,0.439c-0.4,0.293-0.635,0.689-0.7,1.188h3.842
		C88.573,6.541,88.378,6.14,88.041,5.858 M97.312,10.284c0.813,0,1.546-0.407,2.198-1.22l1.447,1.627
		c-1.129,1.171-2.349,1.758-3.66,1.758c-1.314,0-2.424-0.415-3.329-1.245s-1.358-1.915-1.358-3.255c0-1.34,0.458-2.43,1.375-3.271
		c0.916-0.84,2.004-1.261,3.263-1.261c0.628,0,1.267,0.13,1.911,0.391c0.646,0.26,1.213,0.645,1.701,1.155l-1.269,1.66
		c-0.283-0.336-0.627-0.597-1.034-0.781c-0.406-0.185-0.811-0.277-1.212-0.277c-0.641,0-1.19,0.209-1.652,0.626
		c-0.461,0.418-0.691,0.999-0.691,1.742c0,0.743,0.23,1.32,0.691,1.733C96.154,10.078,96.693,10.284,97.312,10.284 M105.463,5.321
		v3.922c0,0.336,0.087,0.599,0.26,0.789c0.174,0.19,0.38,0.285,0.619,0.285c0.455,0,0.84-0.206,1.154-0.619l0.911,1.709
		c-0.759,0.694-1.559,1.042-2.399,1.042c-0.842,0-1.552-0.277-2.132-0.83c-0.58-0.554-0.87-1.308-0.87-2.262V5.321h-1.025V3.563
		h1.025V0.944h2.457v2.619h2.114v1.758H105.463z"/>
</g>
<g>
	<defs>
		<path id="SVGID_3_" d="M35.259,3.392l0.045,3.297h2.745v19.159H13.591v3.297h24.734c1.669,0,3.021-1.353,3.021-3.021V6.413
			c0-1.668-1.352-3.021-3.021-3.021H35.259z"/>
	</defs>
	<clipPath id="SVGID_4_">
		<use xlink:href="#SVGID_3_"  overflow="visible"/>
	</clipPath>

		<linearGradient id="SVGID_5_" gradientUnits="userSpaceOnUse" x1="-95.874" y1="126.5977" x2="-94.874" y2="126.5977" gradientTransform="matrix(-48.8333 -9.8333 -9.8333 48.8333 -3378.0376 -7102.3799)">
		<stop  offset="0" style="stop-color:#F9A723"/>
		<stop  offset="1" style="stop-color:#FF5D78"/>
	</linearGradient>
	<polygon clip-path="url(#SVGID_4_)" fill="url(#SVGID_5_)" points="40.265,34.516 8.607,28.141 14.672,-1.979 46.33,4.395 	"/>
</g>
<g>
	<defs>
		<path id="SVGID_6_" d="M3.022,3.392C1.353,3.392,0,4.745,0,6.413v19.71c0,1.669,1.353,3.021,3.022,3.021h2.89v-3.297H3.298V6.688
			h15.604V3.392H3.022z"/>
	</defs>
	<clipPath id="SVGID_7_">
		<use xlink:href="#SVGID_6_"  overflow="visible"/>
	</clipPath>

		<linearGradient id="SVGID_8_" gradientUnits="userSpaceOnUse" x1="-95.874" y1="126.5947" x2="-94.874" y2="126.5947" gradientTransform="matrix(32.7317 8.5017 8.5017 -32.7317 2050.3662 4969.5581)">
		<stop  offset="0" style="stop-color:#2CC4DD"/>
		<stop  offset="1" style="stop-color:#3888FC"/>
	</linearGradient>
	<polygon clip-path="url(#SVGID_7_)" fill="url(#SVGID_8_)" points="1.195,-1.208 25.168,5.019 17.708,33.744 -6.267,27.517 	"/>
</g>
<g>
	<defs>
		<rect id="SVGID_9_" x="-95.874" y="-83.417" width="300.156" height="210.021"/>
	</defs>
	<clipPath id="SVGID_10_">
		<use xlink:href="#SVGID_9_"  overflow="visible"/>
	</clipPath>
	<polyline clip-path="url(#SVGID_10_)" fill="#1A1A1A" points="33.097,3.392 33.097,21.809 29.8,21.809 29.8,14.083 24.374,14.083
		24.374,21.809 21.076,21.809 21.076,3.392 24.374,3.392 24.374,10.787 29.8,10.787 29.8,3.392 	"/>
	<path clip-path="url(#SVGID_10_)" fill="#1A1A1A" d="M7.88,29.145V10.787h8.376c1.462,0,2.647,1.185,2.647,2.647v5.728
		c0,1.462-1.185,2.647-2.647,2.647h-5.078v7.336 M11.178,18.512h4.428v-4.429h-4.428V18.512z"/>
</g>
</svg>
