<?xml version="1.0" encoding="utf-8"?>
<!-- Generator: Adobe Illustrator 18.0.0, SVG Export Plug-In . SVG Version: 6.00 Build 0)  -->
<!DOCTYPE svg PUBLIC "-//W3C//DTD SVG 1.1//EN" "http://www.w3.org/Graphics/SVG/1.1/DTD/svg11.dtd">
<svg version="1.1" id="Layer_1" xmlns="http://www.w3.org/2000/svg" xmlns:xlink="http://www.w3.org/1999/xlink" x="0px" y="0px"
	 viewBox="0 0 286.2 77.1" enable-background="new 0 0 286.2 77.1" xml:space="preserve">
<g>
	<defs>
		<rect id="SVGID_1_" width="286.2" height="77.1"/>
	</defs>
	<clipPath id="SVGID_2_">
		<use xlink:href="#SVGID_1_"  overflow="visible"/>
	</clipPath>
	<path clip-path="url(#SVGID_2_)" fill="#231F20" d="M206.3,59.7c-0.9-0.7-2-1.1-3.2-1.1s-2.4,0.4-3.5,1.2s-1.7,1.8-1.8,3.1h10.1
		C207.7,61.5,207.2,60.4,206.3,59.7 M212.5,73.4c-2.6,2.5-5.7,3.7-9.2,3.7c-3.5,0-6.4-1.1-8.7-3.2c-2.3-2.2-3.4-5.1-3.4-8.7
		c0-3.6,1.2-6.5,3.5-8.7c2.3-2.1,5.1-3.2,8.3-3.2c3.2,0,5.9,1,8.1,2.9c2.2,1.9,3.3,4.6,3.3,7.9v3.4h-16.8c0.2,1.3,0.9,2.3,2,3.1
		c1.1,0.8,2.4,1.2,3.8,1.2c2.3,0,4.1-0.8,5.6-2.3L212.5,73.4z M188,59.3c-1.9,0-3.4,0.7-4.3,2c-0.9,1.4-1.4,3.2-1.4,5.4v10h-6.4
		V53.6h6.4v3.1c0.8-0.9,1.9-1.7,3.1-2.4c1.2-0.7,2.5-1,3.8-1l0,6.1H188z M170.8,76.7h-6.4V53.6h6.4V76.7z M164.9,50.7
		c-0.7-0.7-1.1-1.6-1.1-2.7c0-1.1,0.4-2,1.1-2.7c0.7-0.7,1.6-1.1,2.7-1.1c1.1,0,2,0.4,2.7,1.1c0.7,0.7,1.1,1.6,1.1,2.7
		c0,1.1-0.4,2-1.1,2.7c-0.7,0.7-1.6,1.1-2.7,1.1C166.6,51.7,165.7,51.4,164.9,50.7 M152.3,46.7h6.7v30h-6.7V64.9h-11.9v11.8h-6.7
		v-30h6.7v12.5h11.9V46.7z"/>
	<path clip-path="url(#SVGID_2_)" fill="#231F20" d="M278.4,14v10.4c0,0.9,0.2,1.6,0.7,2.1c0.5,0.5,1,0.8,1.6,0.8
		c1.2,0,2.2-0.5,3.1-1.6l2.4,4.5c-2,1.8-4.1,2.7-6.3,2.7s-4.1-0.7-5.6-2.2c-1.5-1.5-2.3-3.5-2.3-6V14h-2.7V9.4h2.7V2.5h6.5v6.9h5.6
		V14H278.4z M256.9,27.1c2.1,0,4.1-1.1,5.8-3.2l3.8,4.3c-3,3.1-6.2,4.6-9.7,4.6c-3.5,0-6.4-1.1-8.8-3.3c-2.4-2.2-3.6-5.1-3.6-8.6
		c0-3.5,1.2-6.4,3.6-8.6c2.4-2.2,5.3-3.3,8.6-3.3c1.7,0,3.3,0.3,5,1c1.7,0.7,3.2,1.7,4.5,3l-3.4,4.4c-0.7-0.9-1.7-1.6-2.7-2.1
		c-1.1-0.5-2.1-0.7-3.2-0.7c-1.7,0-3.1,0.6-4.4,1.7c-1.2,1.1-1.8,2.6-1.8,4.6c0,2,0.6,3.5,1.8,4.6C253.8,26.6,255.3,27.1,256.9,27.1
		 M232.4,15.5c-0.9-0.7-2-1.1-3.2-1.1c-1.3,0-2.4,0.4-3.5,1.2c-1.1,0.8-1.7,1.8-1.8,3.1H234C233.8,17.3,233.3,16.2,232.4,15.5
		 M238.6,29.2c-2.6,2.5-5.7,3.7-9.2,3.7c-3.5,0-6.4-1.1-8.7-3.2c-2.3-2.2-3.4-5.1-3.4-8.7c0-3.6,1.2-6.5,3.5-8.7
		c2.3-2.1,5.1-3.2,8.3-3.2c3.2,0,5.9,1,8.1,2.9c2.2,1.9,3.3,4.6,3.3,7.9v3.4h-16.8c0.2,1.3,0.9,2.3,2,3.1c1.1,0.8,2.4,1.2,3.8,1.2
		c2.3,0,4.1-0.8,5.6-2.3L238.6,29.2z M206.7,6.5c-0.7-0.7-1.1-1.6-1.1-2.7c0-1.1,0.4-2,1.1-2.7c0.7-0.7,1.6-1.1,2.7-1.1
		c1.1,0,2,0.4,2.7,1.1c0.7,0.7,1.1,1.6,1.1,2.7c0,1.1-0.4,2-1.1,2.7c-0.7,0.7-1.6,1.1-2.7,1.1C208.3,7.6,207.4,7.2,206.7,6.5
		 M206.1,32.9V9.4h6.4v24.1c0,2.5-1,4.5-2.5,6c-1.5,1.5-3.4,2.2-5.6,2.2c-2.2,0-4.3-0.9-6.3-2.7l3.2-4.8c0.9,1,1.8,1.5,2.9,1.5
		c0.6,0,1-0.2,1.4-0.7C205.9,34.5,206.1,33.8,206.1,32.9 M183.3,21c0,1.9,0.5,3.4,1.6,4.6c1.1,1.2,2.4,1.8,4.1,1.8
		c1.7,0,3.1-0.6,4.1-1.8c1.1-1.2,1.6-2.7,1.6-4.6c0-1.9-0.5-3.4-1.6-4.6c-1.1-1.2-2.4-1.8-4.1-1.8c-1.7,0-3.1,0.6-4.1,1.8
		C183.9,17.5,183.3,19.1,183.3,21 M201.3,21c0,3.4-1.2,6.2-3.5,8.5c-2.3,2.3-5.2,3.4-8.7,3.4c-3.5,0-6.4-1.1-8.7-3.4
		c-2.3-2.3-3.5-5.1-3.5-8.5c0-3.3,1.2-6.2,3.5-8.5c2.3-2.3,5.2-3.5,8.7-3.5c3.5,0,6.4,1.2,8.7,3.5C200.1,14.8,201.3,17.6,201.3,21
		 M173.6,15.1c-1.9,0-3.4,0.7-4.3,2c-0.9,1.4-1.4,3.2-1.4,5.4v10h-6.4V9.4h6.4v3.1c0.8-0.9,1.9-1.7,3.1-2.4c1.2-0.7,2.5-1,3.8-1
		l0,6.1H173.6z M140,21c0,1.9,0.5,3.4,1.6,4.6c1,1.2,2.3,1.8,3.8,1.8s2.8-0.6,3.9-1.8c1.1-1.2,1.7-2.7,1.7-4.6
		c0-1.9-0.5-3.4-1.6-4.7c-1.1-1.3-2.4-1.9-3.9-1.9c-1.5,0-2.8,0.6-3.8,1.9C140.5,17.5,140,19.1,140,21 M147.1,9
		c2.7,0,5.1,1.1,7.2,3.4c2.1,2.2,3.2,5.1,3.2,8.5c0,3.4-1.1,6.3-3.2,8.6c-2.1,2.3-4.6,3.4-7.4,3.4c-2.8,0-5.1-1.1-6.8-3.4v11.4h-6.4
		V9.4h6.4V12C142.1,10,144.4,9,147.1,9"/>
	<path clip-path="url(#SVGID_2_)" fill="#F6581F" d="M93.1,9h8.1c4.4,0,8,3.6,8,8v52c0,4.4-3.6,8-8,8H35.9v-8.7h64.6V17.7h-7.2
		L93.1,9z"/>
	<path clip-path="url(#SVGID_2_)" fill="#1E8FFF" d="M15.6,76.9H8c-4.4,0-8-3.6-8-8v-52c0-4.4,3.6-8,8-8h41.9v8.7H8.7v50.6h6.9V76.9
		z"/>
</g>
<polyline fill="#231F20" points="87.4,9 87.4,57.6 78.7,57.6 78.7,37.2 64.3,37.2 64.3,57.6 55.6,57.6 55.6,9 64.3,9 64.3,28.5 
	78.7,28.5 78.7,9 "/>
<g>
	<defs>
		<rect id="SVGID_3_" width="286.2" height="77.1"/>
	</defs>
	<clipPath id="SVGID_4_">
		<use xlink:href="#SVGID_3_"  overflow="visible"/>
	</clipPath>
	<path clip-path="url(#SVGID_4_)" fill="#231F20" d="M29.5,48.9h11.7V37.2H29.5V48.9z M20.8,76.9V28.5l22.1,0c3.9,0,7,3.1,7,7v15.1
		c0,3.9-3.1,7-7,7H29.5v19.4"/>
</g>
<g>
	<defs>
		<rect id="SVGID_5_" width="286.2" height="77.1"/>
	</defs>
	<clipPath id="SVGID_6_">
		<use xlink:href="#SVGID_5_"  overflow="visible"/>
	</clipPath>
	<path clip-path="url(#SVGID_6_)" fill="#231F20" d="M206.3,59.7c-0.9-0.7-2-1.1-3.2-1.1s-2.4,0.4-3.5,1.2s-1.7,1.8-1.8,3.1h10.1
		C207.7,61.5,207.2,60.4,206.3,59.7 M212.5,73.4c-2.6,2.5-5.7,3.7-9.2,3.7c-3.5,0-6.4-1.1-8.7-3.2c-2.3-2.2-3.4-5.1-3.4-8.7
		c0-3.6,1.2-6.5,3.5-8.7c2.3-2.1,5.1-3.2,8.3-3.2c3.2,0,5.9,1,8.1,2.9c2.2,1.9,3.3,4.6,3.3,7.9v3.4h-16.8c0.2,1.3,0.9,2.3,2,3.1
		c1.1,0.8,2.4,1.2,3.8,1.2c2.3,0,4.1-0.8,5.6-2.3L212.5,73.4z M188,59.3c-1.9,0-3.4,0.7-4.3,2c-0.9,1.4-1.4,3.2-1.4,5.4v10h-6.4
		V53.6h6.4v3.1c0.8-0.9,1.9-1.7,3.1-2.4c1.2-0.7,2.5-1,3.8-1l0,6.1H188z M170.8,76.7h-6.4V53.6h6.4V76.7z M164.9,50.7
		c-0.7-0.7-1.1-1.6-1.1-2.7c0-1.1,0.4-2,1.1-2.7c0.7-0.7,1.6-1.1,2.7-1.1c1.1,0,2,0.4,2.7,1.1c0.7,0.7,1.1,1.6,1.1,2.7
		c0,1.1-0.4,2-1.1,2.7c-0.7,0.7-1.6,1.1-2.7,1.1C166.6,51.7,165.7,51.4,164.9,50.7 M152.3,46.7h6.7v30h-6.7V64.9h-11.9v11.8h-6.7
		v-30h6.7v12.5h11.9V46.7z"/>
	<path clip-path="url(#SVGID_6_)" fill="#231F20" d="M278.4,14v10.4c0,0.9,0.2,1.6,0.7,2.1c0.5,0.5,1,0.8,1.6,0.8
		c1.2,0,2.2-0.5,3.1-1.6l2.4,4.5c-2,1.8-4.1,2.7-6.3,2.7s-4.1-0.7-5.6-2.2c-1.5-1.5-2.3-3.5-2.3-6V14h-2.7V9.4h2.7V2.5h6.5v6.9h5.6
		V14H278.4z M256.9,27.1c2.1,0,4.1-1.1,5.8-3.2l3.8,4.3c-3,3.1-6.2,4.6-9.7,4.6c-3.5,0-6.4-1.1-8.8-3.3c-2.4-2.2-3.6-5.1-3.6-8.6
		c0-3.5,1.2-6.4,3.6-8.6c2.4-2.2,5.3-3.3,8.6-3.3c1.7,0,3.3,0.3,5,1c1.7,0.7,3.2,1.7,4.5,3l-3.4,4.4c-0.7-0.9-1.7-1.6-2.7-2.1
		c-1.1-0.5-2.1-0.7-3.2-0.7c-1.7,0-3.1,0.6-4.4,1.7c-1.2,1.1-1.8,2.6-1.8,4.6c0,2,0.6,3.5,1.8,4.6C253.8,26.6,255.3,27.1,256.9,27.1
		 M232.4,15.5c-0.9-0.7-2-1.1-3.2-1.1c-1.3,0-2.4,0.4-3.5,1.2c-1.1,0.8-1.7,1.8-1.8,3.1H234C233.8,17.3,233.3,16.2,232.4,15.5
		 M238.6,29.2c-2.6,2.5-5.7,3.7-9.2,3.7c-3.5,0-6.4-1.1-8.7-3.2c-2.3-2.2-3.4-5.1-3.4-8.7c0-3.6,1.2-6.5,3.5-8.7
		c2.3-2.1,5.1-3.2,8.3-3.2c3.2,0,5.9,1,8.1,2.9c2.2,1.9,3.3,4.6,3.3,7.9v3.4h-16.8c0.2,1.3,0.9,2.3,2,3.1c1.1,0.8,2.4,1.2,3.8,1.2
		c2.3,0,4.1-0.8,5.6-2.3L238.6,29.2z M206.7,6.5c-0.7-0.7-1.1-1.6-1.1-2.7c0-1.1,0.4-2,1.1-2.7c0.7-0.7,1.6-1.1,2.7-1.1
		c1.1,0,2,0.4,2.7,1.1c0.7,0.7,1.1,1.6,1.1,2.7c0,1.1-0.4,2-1.1,2.7c-0.7,0.7-1.6,1.1-2.7,1.1C208.3,7.6,207.4,7.2,206.7,6.5
		 M206.1,32.9V9.4h6.4v24.1c0,2.5-1,4.5-2.5,6c-1.5,1.5-3.4,2.2-5.6,2.2c-2.2,0-4.3-0.9-6.3-2.7l3.2-4.8c0.9,1,1.8,1.5,2.9,1.5
		c0.6,0,1-0.2,1.4-0.7C205.9,34.5,206.1,33.8,206.1,32.9 M183.3,21c0,1.9,0.5,3.4,1.6,4.6c1.1,1.2,2.4,1.8,4.1,1.8
		c1.7,0,3.1-0.6,4.1-1.8c1.1-1.2,1.6-2.7,1.6-4.6c0-1.9-0.5-3.4-1.6-4.6c-1.1-1.2-2.4-1.8-4.1-1.8c-1.7,0-3.1,0.6-4.1,1.8
		C183.9,17.5,183.3,19.1,183.3,21 M201.3,21c0,3.4-1.2,6.2-3.5,8.5c-2.3,2.3-5.2,3.4-8.7,3.4c-3.5,0-6.4-1.1-8.7-3.4
		c-2.3-2.3-3.5-5.1-3.5-8.5c0-3.3,1.2-6.2,3.5-8.5c2.3-2.3,5.2-3.5,8.7-3.5c3.5,0,6.4,1.2,8.7,3.5C200.1,14.8,201.3,17.6,201.3,21
		 M173.6,15.1c-1.9,0-3.4,0.7-4.3,2c-0.9,1.4-1.4,3.2-1.4,5.4v10h-6.4V9.4h6.4v3.1c0.8-0.9,1.9-1.7,3.1-2.4c1.2-0.7,2.5-1,3.8-1
		l0,6.1H173.6z M140,21c0,1.9,0.5,3.4,1.6,4.6c1,1.2,2.3,1.8,3.8,1.8s2.8-0.6,3.9-1.8c1.1-1.2,1.7-2.7,1.7-4.6
		c0-1.9-0.5-3.4-1.6-4.7c-1.1-1.3-2.4-1.9-3.9-1.9c-1.5,0-2.8,0.6-3.8,1.9C140.5,17.5,140,19.1,140,21 M147.1,9
		c2.7,0,5.1,1.1,7.2,3.4c2.1,2.2,3.2,5.1,3.2,8.5c0,3.4-1.1,6.3-3.2,8.6c-2.1,2.3-4.6,3.4-7.4,3.4c-2.8,0-5.1-1.1-6.8-3.4v11.4h-6.4
		V9.4h6.4V12C142.1,10,144.4,9,147.1,9"/>
	<path clip-path="url(#SVGID_6_)" fill="#F6581F" d="M93.1,9h8.1c4.4,0,8,3.6,8,8v52c0,4.4-3.6,8-8,8H35.9v-8.7h64.6V17.7h-7.4
		L93.1,9z"/>
	<path clip-path="url(#SVGID_6_)" fill="#1E8FFF" d="M15.6,76.9H8c-4.4,0-8-3.6-8-8v-52c0-4.4,3.6-8,8-8h41.9v8.7H8.7v50.6h6.9V76.9
		z"/>
</g>
<polyline fill="#231F20" points="87.4,9 87.4,57.6 78.7,57.6 78.7,37.2 64.3,37.2 64.3,57.6 55.6,57.6 55.6,9 64.3,9 64.3,28.5 
	78.7,28.5 78.7,9 "/>
<g>
	<defs>
		<rect id="SVGID_7_" width="286.2" height="77.1"/>
	</defs>
	<clipPath id="SVGID_8_">
		<use xlink:href="#SVGID_7_"  overflow="visible"/>
	</clipPath>
	<path clip-path="url(#SVGID_8_)" fill="#231F20" d="M29.5,48.9h11.7V37.2H29.5V48.9z M20.8,76.9V28.5l22.1,0c3.9,0,7,3.1,7,7v15.1
		c0,3.9-3.1,7-7,7H29.5v19.4"/>
</g>
</svg>
