<?xml version="1.0" encoding="utf-8"?>
<!-- Generator: Adobe Illustrator 18.0.0, SVG Export Plug-In . SVG Version: 6.00 Build 0)  -->
<!DOCTYPE svg PUBLIC "-//W3C//DTD SVG 1.1//EN" "http://www.w3.org/Graphics/SVG/1.1/DTD/svg11.dtd">
<svg version="1.1" xmlns="http://www.w3.org/2000/svg" xmlns:xlink="http://www.w3.org/1999/xlink" x="0px" y="0px"
	 viewBox="0 0 108.6 29.2" enable-background="new 0 0 108.6 29.2" xml:space="preserve">
<g id="Layer_1">
	<g>
		<path d="M57.9,17.7h2.5v11.4h-2.5v-4.5h-4.5v4.5h-2.5V17.7h2.5v4.8h4.5V17.7z M62.6,19.2c-0.3-0.3-0.4-0.6-0.4-1
			c0-0.4,0.1-0.7,0.4-1c0.3-0.3,0.6-0.4,1-0.4c0.4,0,0.7,0.1,1,0.4c0.3,0.3,0.4,0.6,0.4,1c0,0.4-0.1,0.7-0.4,1
			c-0.3,0.3-0.6,0.4-1,0.4C63.3,19.6,62.9,19.5,62.6,19.2z M64.9,29.1h-2.4v-8.8h2.4V29.1z M71.4,22.4c-0.7,0-1.3,0.3-1.6,0.8
			c-0.4,0.5-0.5,1.2-0.5,2v3.8h-2.4v-8.8h2.4v1.2c0.3-0.4,0.7-0.7,1.2-0.9c0.5-0.2,1-0.4,1.4-0.4l0,2.3H71.4z M80.7,27.8
			c-1,0.9-2.1,1.4-3.5,1.4c-1.3,0-2.4-0.4-3.3-1.2c-0.9-0.8-1.3-1.9-1.3-3.3c0-1.4,0.4-2.5,1.3-3.3c0.9-0.8,1.9-1.2,3.1-1.2
			c1.2,0,2.2,0.4,3.1,1.1c0.8,0.7,1.3,1.7,1.3,3v1.3H75c0.1,0.5,0.3,0.9,0.7,1.2c0.4,0.3,0.9,0.5,1.4,0.5c0.9,0,1.6-0.3,2.1-0.9
			L80.7,27.8z M78.3,22.6c-0.3-0.3-0.7-0.4-1.2-0.4c-0.5,0-0.9,0.1-1.3,0.4c-0.4,0.3-0.6,0.7-0.7,1.2h3.8
			C78.8,23.3,78.6,22.9,78.3,22.6z"/>
		<path d="M55.9,3.4c1,0,1.9,0.4,2.7,1.3c0.8,0.9,1.2,1.9,1.2,3.2c0,1.3-0.4,2.4-1.2,3.2c-0.8,0.9-1.7,1.3-2.8,1.3
			c-1.1,0-1.9-0.4-2.6-1.3v4.3h-2.4V3.6h2.4v1C54,3.8,54.9,3.4,55.9,3.4z M53.2,7.9c0,0.7,0.2,1.3,0.6,1.7c0.4,0.5,0.9,0.7,1.4,0.7
			c0.6,0,1.1-0.2,1.5-0.7c0.4-0.4,0.6-1,0.6-1.7s-0.2-1.3-0.6-1.8c-0.4-0.5-0.9-0.7-1.5-0.7c-0.6,0-1.1,0.2-1.5,0.7
			C53.4,6.6,53.2,7.2,53.2,7.9z M65.9,5.7c-0.7,0-1.3,0.3-1.6,0.8c-0.4,0.5-0.5,1.2-0.5,2v3.8h-2.4V3.6h2.4v1.2
			c0.3-0.4,0.7-0.7,1.2-0.9c0.5-0.2,1-0.4,1.4-0.4l0,2.3H65.9z M76.4,7.9c0,1.3-0.4,2.3-1.3,3.2c-0.9,0.9-2,1.3-3.3,1.3
			c-1.3,0-2.4-0.4-3.3-1.3c-0.9-0.9-1.3-1.9-1.3-3.2c0-1.3,0.4-2.3,1.3-3.2c0.9-0.9,2-1.3,3.3-1.3c1.3,0,2.4,0.4,3.3,1.3
			C76,5.6,76.4,6.7,76.4,7.9z M69.6,7.9c0,0.7,0.2,1.3,0.6,1.7c0.4,0.5,0.9,0.7,1.6,0.7s1.2-0.2,1.6-0.7c0.4-0.4,0.6-1,0.6-1.7
			c0-0.7-0.2-1.3-0.6-1.8c-0.4-0.5-0.9-0.7-1.6-0.7s-1.2,0.2-1.6,0.7C69.8,6.6,69.6,7.2,69.6,7.9z M78.2,12.5V3.5h2.4v9.1
			c0,1-0.4,1.7-1,2.3c-0.6,0.6-1.3,0.8-2.1,0.8c-0.8,0-1.6-0.3-2.4-1l1.2-1.8c0.3,0.4,0.7,0.6,1.1,0.6c0.2,0,0.4-0.1,0.5-0.3
			C78.2,13.1,78.2,12.8,78.2,12.5z M78.4,2.4c-0.3-0.3-0.4-0.6-0.4-1s0.1-0.7,0.4-1c0.3-0.3,0.6-0.4,1-0.4c0.4,0,0.7,0.1,1,0.4
			c0.3,0.3,0.4,0.6,0.4,1s-0.1,0.7-0.4,1c-0.3,0.3-0.6,0.4-1,0.4C79.1,2.9,78.7,2.7,78.4,2.4z M90.6,11c-1,0.9-2.1,1.4-3.5,1.4
			c-1.3,0-2.4-0.4-3.3-1.2c-0.9-0.8-1.3-1.9-1.3-3.3c0-1.4,0.4-2.5,1.3-3.3c0.9-0.8,1.9-1.2,3.1-1.2c1.2,0,2.2,0.4,3.1,1.1
			c0.8,0.7,1.3,1.7,1.3,3v1.3h-6.4c0.1,0.5,0.3,0.9,0.7,1.2c0.4,0.3,0.9,0.5,1.4,0.5c0.9,0,1.6-0.3,2.1-0.9L90.6,11z M88.2,5.9
			c-0.3-0.3-0.7-0.4-1.2-0.4c-0.5,0-0.9,0.1-1.3,0.4C85.3,6.2,85,6.6,85,7.1h3.8C88.7,6.5,88.5,6.1,88.2,5.9z M97.5,10.3
			c0.8,0,1.5-0.4,2.2-1.2l1.4,1.6c-1.1,1.2-2.3,1.8-3.7,1.8c-1.3,0-2.4-0.4-3.3-1.2c-0.9-0.8-1.4-1.9-1.4-3.3s0.5-2.4,1.4-3.3
			c0.9-0.8,2-1.3,3.3-1.3c0.6,0,1.3,0.1,1.9,0.4c0.6,0.3,1.2,0.6,1.7,1.2l-1.3,1.7c-0.3-0.3-0.6-0.6-1-0.8c-0.4-0.2-0.8-0.3-1.2-0.3
			c-0.6,0-1.2,0.2-1.7,0.6c-0.5,0.4-0.7,1-0.7,1.7c0,0.7,0.2,1.3,0.7,1.7C96.3,10.1,96.9,10.3,97.5,10.3z M105.6,5.3v3.9
			c0,0.3,0.1,0.6,0.3,0.8c0.2,0.2,0.4,0.3,0.6,0.3c0.5,0,0.8-0.2,1.2-0.6l0.9,1.7c-0.8,0.7-1.6,1-2.4,1c-0.8,0-1.6-0.3-2.1-0.8
			c-0.6-0.6-0.9-1.3-0.9-2.3v-4h-1V3.6h1V0.9h2.5v2.6h2.1v1.8H105.6z"/>
		<path d="M35.1,3.4h3c1.7,0,3,1.4,3,3v19.7c0,1.7-1.4,3-3,3H13.4v-3.3h24.5V6.7h-2.7"/>
		<path d="M6,29.1H3c-1.7,0-3-1.4-3-3V6.4c0-1.7,1.4-3,3-3h16v3.3H3.3v19.2H6"/>
		<polyline points="33.1,3.4 33.1,21.8 29.8,21.8 29.8,14.1 24.4,14.1 24.4,21.8 21.1,21.8 21.1,3.4 24.4,3.4 24.4,10.8 29.8,10.8 
			29.8,3.4 		"/>
		<path d="M8,29.1V10.8l8.4,0c1.5,0,2.6,1.2,2.6,2.6v5.7c0,1.5-1.2,2.6-2.6,2.6h-5.1v7.3 M11.3,18.5h4.4v-4.4h-4.4V18.5z"/>
	</g>
</g>
<g id="Layer_2">
</g>
<g id="Layer_3">
</g>
<g id="Layer_4">
</g>
</svg>
