<?xml version="1.0" encoding="utf-8"?>
<!-- Generator: Adobe Illustrator 16.0.0, SVG Export Plug-In . SVG Version: 6.00 Build 0)  -->
<!DOCTYPE svg PUBLIC "-//W3C//DTD SVG 1.1//EN" "http://www.w3.org/Graphics/SVG/1.1/DTD/svg11.dtd">
<svg version="1.1" id="Layer_1" xmlns="http://www.w3.org/2000/svg" xmlns:xlink="http://www.w3.org/1999/xlink" x="0px" y="0px"
	 width="233.509px" height="145.622px" viewBox="0 0 233.509 145.622" enable-background="new 0 0 233.509 145.622"
	 xml:space="preserve">
<polyline fill="#231F20" points="186.893,0.214 186.893,104.139 168.289,104.139 168.289,60.516 137.497,60.516 137.497,104.139 
	118.893,104.139 118.893,0.214 137.497,0.214 137.497,41.912 168.289,41.912 168.289,0.214 "/>
<path fill="#231F20" d="M63.082,85.534h25.019V60.516H63.082V85.534z M44.478,145.408V41.912h47.258
	c8.34,0,14.969,6.629,14.969,14.969v32.29c0,8.34-6.629,14.969-14.969,14.969H63.082v41.483"/>
<path fill="#F6581F" d="M199.082,0.214h17.321c9.409,0,17.107,7.698,17.107,17.107v111.195c0,9.409-7.698,17.106-17.107,17.106
	H76.767v-18.604h138.139V18.817h-15.824V0.214z"/>
<path fill="#1E8FFF" d="M33.358,145.408H17.107C7.698,145.408,0,137.711,0,128.302V17.107C0,7.698,7.698,0,17.107,0h89.598v18.604
	H18.604v108.201h14.754V145.408z"/>
</svg>
