<?xml version="1.0" encoding="utf-8"?>
<!-- Generator: Adobe Illustrator 18.0.0, SVG Export Plug-In . SVG Version: 6.00 Build 0)  -->
<!DOCTYPE svg PUBLIC "-//W3C//DTD SVG 1.1//EN" "http://www.w3.org/Graphics/SVG/1.1/DTD/svg11.dtd">
<svg version="1.1" id="Layer_1" xmlns="http://www.w3.org/2000/svg" xmlns:xlink="http://www.w3.org/1999/xlink" x="0px" y="0px"
	 viewBox="0 0 44 44" enable-background="new 0 0 44 44" xml:space="preserve">
<g>
	<path fill="#818181" d="M22,0C9.9,0,0,9.9,0,22c0,12.2,9.9,22,22,22s22-9.8,22-22C44,9.9,34.1,0,22,0"/>
	<path fill="#FFFFFF" d="M33.4,15.6c-0.8,0.4-1.6,0.6-2.5,0.7c0.9-0.6,1.6-1.4,1.9-2.5c-0.8,0.5-1.8,0.9-2.8,1.1
		c-0.8-0.9-1.9-1.4-3.2-1.4c-2.4,0-4.3,2-4.3,4.5c0,0.4,0,0.7,0.1,1c-3.6-0.2-6.8-2-8.9-4.7c-0.4,0.7-0.6,1.4-0.6,2.3
		c0,1.6,0.8,2.9,1.9,3.7c-0.7,0-1.4-0.2-2-0.6v0.1c0,2.2,1.5,4,3.5,4.4c-0.4,0.1-0.7,0.2-1.1,0.2c-0.3,0-0.6,0-0.8-0.1
		c0.6,1.8,2.2,3.1,4.1,3.1c-1.5,1.2-3.4,1.9-5.4,1.9c-0.3,0-0.7,0-1-0.1c1.9,1.3,4.2,2,6.6,2c8,0,12.3-6.8,12.3-12.8
		c0-0.2,0-0.4,0-0.6C32,17.3,32.8,16.5,33.4,15.6"/>
</g>
</svg>
